<svg id="Component_3_1" data-name="Component 3 – 1" xmlns="http://www.w3.org/2000/svg" width="930.609" height="941.604" viewBox="0 0 930.609 941.604">
  <path id="Path_142" data-name="Path 142" d="M596.444,494.525a65.93,65.93,0,0,0-36.411,4.5,42.358,42.358,0,0,1-46.513-8.281l-21.939-21.426a92.638,92.638,0,0,1-27.912-66.279V301.977a66.512,66.512,0,0,1,20.043-47.586l57.007-55.673c9.2-8.989,22.064-13.744,34.761-11.676a65.857,65.857,0,1,0-.932-129.884c-27.968,4.682-50.131,27.784-53.862,55.894a66.272,66.272,0,0,0,2.269,28.242c4.969,16.236-.013,33.879-12.16,45.742l-28.367,27.7a78.073,78.073,0,0,1-54.534,22.213H290.054a89.361,89.361,0,0,1-62.44-25.433L192.471,177.2c-10.942-10.685-16.362-26.22-13.085-41.159a65.816,65.816,0,0,0,.869-23.26c-3.928-28.235-26.358-51.314-54.517-55.739a65.921,65.921,0,0,0-75.62,76.048c4.6,28.294,28.034,50.675,56.477,54.257a66.027,66.027,0,0,0,23.625-1.235c14.386-3.421,29.526.026,40.109,10.359l35.8,34.965A106.877,106.877,0,0,1,238.332,307.9V412.049a97.549,97.549,0,0,1-29.391,69.786l-15.607,15.242a37.424,37.424,0,0,1-45.061,5.647,65.805,65.805,0,0,0-98.324,46.852c-6.878,46.895,35.729,86.17,83.362,73.362,28.531-7.672,47.59-34.662,47.59-64.208v-.148a20.111,20.111,0,0,1,6.049-14.369l59.456-58.064a83.848,83.848,0,0,1,58.584-23.862H415.364a66.637,66.637,0,0,1,46.556,18.963l41.811,40.836c10.112,9.872,16.365,23.283,16.358,37.415A65.858,65.858,0,1,0,650.8,548.11a65.841,65.841,0,0,0-54.359-53.586" transform="translate(112.839 128.855)" fill="#2563eb"/>
  <path id="Path_143" data-name="Path 143" d="M248.572,98.661a63.406,63.406,0,1,1-63.408-63.408,63.407,63.407,0,0,1,63.408,63.408" transform="translate(279.16 80.825)" fill="#2563eb"/>
  <path id="Path_144" data-name="Path 144" d="M341.3,189.315a63.406,63.406,0,1,1-63.408-63.408A63.407,63.407,0,0,1,341.3,189.315" transform="translate(491.759 288.668)" fill="#2563eb"/>
  <path id="Path_145" data-name="Path 145" d="M161.77,189.315a63.406,63.406,0,1,1-63.408-63.408,63.409,63.409,0,0,1,63.408,63.408" transform="translate(80.149 288.668)" fill="#2563eb"/>
  <path id="Path_146" data-name="Path 146" d="M254.125,281.927a63.406,63.406,0,1,1-63.408-63.408,63.407,63.407,0,0,1,63.408,63.408" transform="translate(291.892 501.001)" fill="#2563eb"/>
  <path id="Path_147" data-name="Path 147" d="M76.088,125.142A38.044,38.044,0,1,1,38.044,87.1a38.044,38.044,0,0,1,38.044,38.044" transform="translate(0 199.69)" fill="#2563eb"/>
  <path id="Path_148" data-name="Path 148" d="M157.854,38.041A38.044,38.044,0,1,1,119.81,0a38.042,38.042,0,0,1,38.044,38.041" transform="translate(187.466)" fill="#2563eb"/>
  <path id="Path_149" data-name="Path 149" d="M250.285,42.487A38.044,38.044,0,1,1,212.241,4.443a38.044,38.044,0,0,1,38.044,38.044" transform="translate(399.383 10.187)" fill="#2563eb"/>
  <path id="Path_150" data-name="Path 150" d="M333.829,118.921a38.044,38.044,0,1,1-38.044-38.044,38.044,38.044,0,0,1,38.044,38.044" transform="translate(590.926 185.428)" fill="#2563eb"/>
  <path id="Path_151" data-name="Path 151" d="M335.607,226.461a38.044,38.044,0,1,1-38.044-38.044,38.044,38.044,0,0,1,38.044,38.044" transform="translate(595.002 431.986)" fill="#2563eb"/>
  <path id="Path_152" data-name="Path 152" d="M261.645,300.9A38.044,38.044,0,1,1,223.6,262.858,38.044,38.044,0,0,1,261.645,300.9" transform="translate(425.428 602.657)" fill="#2563eb"/>
  <path id="Path_153" data-name="Path 153" d="M161.444,297.229A38.044,38.044,0,1,1,123.4,259.185a38.044,38.044,0,0,1,38.044,38.044" transform="translate(195.696 594.236)" fill="#2563eb"/>
  <path id="Path_154" data-name="Path 154" d="M77.31,214.768a38.044,38.044,0,1,1-38.044-38.044A38.044,38.044,0,0,1,77.31,214.768" transform="translate(2.802 405.177)" fill="#2563eb"/>
</svg>
